<?xml version="1.0" encoding="iso-8859-1"?>
<!-- Uploaded to: SVG Repo, www.svgrepo.com, Generator: SVG Repo Mixer Tools -->
<svg height="800px" width="800px" version="1.1" id="Layer_1" xmlns="http://www.w3.org/2000/svg" xmlns:xlink="http://www.w3.org/1999/xlink" 
	 viewBox="0 0 512 512" xml:space="preserve">
<polygon style="fill:#CFF09E;" points="416.376,497.509 95.594,497.509 127.796,400.963 384.175,400.963 "/>
<path style="fill:#507C5C;" d="M416.405,512c-0.006,0-0.017,0-0.029,0H95.594c-4.659,0-9.033-2.239-11.757-6.02
	c-2.723-3.779-3.463-8.638-1.99-13.057l32.203-96.544c1.974-5.917,7.511-9.906,13.747-9.906h256.378
	c6.237,0,11.773,3.99,13.747,9.906l31.904,95.65c0.691,1.691,1.071,3.54,1.071,5.479C430.897,505.511,424.409,512,416.405,512z
	 M115.704,483.017h280.562l-22.536-67.561H138.24L115.704,483.017z"/>
<polygon style="fill:#CFF09E;" points="128.554,163.693 255.986,14.491 383.417,163.693 "/>
<g>
	<path style="fill:#507C5C;" d="M393.929,153.688L267.004,5.079C264.252,1.856,260.225,0,255.986,0s-8.266,1.856-11.019,5.079
		L117.536,154.281c-3.674,4.3-4.508,10.344-2.142,15.478c2.366,5.134,7.505,8.424,13.16,8.424h17.843v118.223
		c0,8.004,6.489,14.491,14.491,14.491h52.677l29.87,51.737c2.588,4.484,7.373,7.246,12.55,7.246c5.176,0,9.961-2.762,12.55-7.246
		l34.054-58.983c4.003-6.931,1.627-15.794-5.304-19.795c-6.933-4.003-15.794-1.626-19.795,5.304l-21.504,37.246l-21.504-37.246
		c-2.588-4.484-7.373-7.246-12.55-7.246H175.38V178.183h161.209v118.223c0,8.004,6.489,14.491,14.491,14.491
		c8.002,0,14.491-6.488,14.491-14.491V178.183h17.843c0.01,0,0.022,0,0.029,0c8.004,0,14.491-6.488,14.491-14.491
		C397.937,159.812,396.413,156.289,393.929,153.688z M160.89,149.201h-0.901l95.997-112.397l95.997,112.397h-0.901H160.89z"/>
	<path style="fill:#507C5C;" d="M280.622,255.775c-8.002,0-14.491-6.488-14.491-14.491v-13.758h-20.288v13.758
		c0,8.004-6.489,14.491-14.491,14.491c-8.002,0-14.491-6.488-14.491-14.491v-28.25c0-8.004,6.489-14.491,14.491-14.491h49.271
		c8.002,0,14.491,6.488,14.491,14.491v28.25C295.113,249.287,288.624,255.775,280.622,255.775z"/>
</g>
</svg>