<?xml version="1.0" encoding="iso-8859-1"?>
<!-- Uploaded to: SVG Repo, www.svgrepo.com, Generator: SVG Repo Mixer Tools -->
<svg height="800px" width="800px" version="1.1" id="Layer_1" xmlns="http://www.w3.org/2000/svg" xmlns:xlink="http://www.w3.org/1999/xlink" 
	 viewBox="0 0 511.999 511.999" xml:space="preserve">
<g>
	<path style="fill:#507C5C;" d="M461.696,444.526h-66.78c-8.219,0-14.884-6.664-14.884-14.884s6.665-14.884,14.884-14.884h66.78
		c8.219,0,14.884,6.664,14.884,14.884S469.917,444.526,461.696,444.526z"/>
	<path style="fill:#507C5C;" d="M303.63,444.526H120.856c-8.22,0-14.884-6.664-14.884-14.884V93.765
		c0-16.299-8.222-31.234-21.994-39.95L42.345,27.462c-6.946-4.397-9.012-13.591-4.616-20.537s13.592-9.011,20.537-4.616
		l41.633,26.354c22.442,14.205,35.841,38.544,35.841,65.104v320.992h167.89c8.219,0,14.884,6.664,14.884,14.884
		C318.514,437.864,311.849,444.526,303.63,444.526z"/>
</g>
<circle style="fill:#CFF09E;" cx="186.541" cy="463.382" r="33.738"/>
<path style="fill:#507C5C;" d="M186.544,511.999c-26.809,0-48.622-21.811-48.622-48.621c0-26.809,21.811-48.621,48.622-48.621
	s48.62,21.811,48.62,48.621S213.353,511.999,186.544,511.999z M186.544,444.526c-10.395,0-18.854,8.457-18.854,18.854
	c0,10.396,8.457,18.854,18.854,18.854c10.395,0,18.852-8.459,18.852-18.854C205.396,452.984,196.938,444.526,186.544,444.526z"/>
<circle style="fill:#CFF09E;" cx="394.916" cy="463.382" r="33.738"/>
<g>
	<path style="fill:#507C5C;" d="M394.916,511.999c-26.811,0-48.621-21.811-48.621-48.621c0-26.809,21.811-48.621,48.621-48.621
		s48.621,21.811,48.621,48.621C443.538,490.188,421.727,511.999,394.916,511.999z M394.916,444.526
		c-10.395,0-18.854,8.457-18.854,18.854c0,10.396,8.459,18.854,18.854,18.854c10.395,0,18.854-8.459,18.854-18.854
		C413.77,452.984,405.311,444.526,394.916,444.526z"/>
	<path style="fill:#507C5C;" d="M254.514,133.961c-8.22,0-14.884-6.664-14.884-14.884V22.331c0-8.22,6.664-14.884,14.884-14.884
		h92.281c8.219,0,14.884,6.664,14.884,14.884v45.396c0,8.22-6.665,14.884-14.884,14.884c-8.219,0-14.884-6.664-14.884-14.884V37.215
		h-62.513v81.862C269.398,127.298,262.733,133.961,254.514,133.961z"/>
</g>
<polygon style="fill:#CFF09E;" points="281.304,119.077 281.304,222.263 232.187,222.263 232.187,119.077 188.032,119.077 
	188.032,372.105 413.276,372.105 413.276,119.077 "/>
<g>
	<path style="fill:#507C5C;" d="M413.277,386.989H188.032c-8.22,0-14.884-6.664-14.884-14.884V119.077
		c0-8.22,6.664-14.884,14.884-14.884h44.155c8.22,0,14.884,6.664,14.884,14.884v88.302h19.349v-88.302
		c0-8.22,6.665-14.884,14.884-14.884h131.973c8.219,0,14.884,6.664,14.884,14.884v253.028
		C428.161,380.325,421.496,386.989,413.277,386.989z M202.916,357.221h195.476v-223.26H296.186v88.302
		c0,8.22-6.665,14.884-14.884,14.884h-49.117c-8.22,0-14.884-6.664-14.884-14.884v-88.302h-14.387v223.26H202.916z"/>
	<path style="fill:#507C5C;" d="M300.655,133.961H220.28c-8.22,0-14.884-6.664-14.884-14.884s6.664-14.884,14.884-14.884h80.375
		c8.219,0,14.884,6.664,14.884,14.884S308.873,133.961,300.655,133.961z"/>
</g>
</svg>